<svg width="309" height="28" viewBox="0 0 309 28" fill="none" xmlns="http://www.w3.org/2000/svg">
<g clip-path="url(#clip0_4434_178)">
<path fill-rule="evenodd" clip-rule="evenodd" d="M35.3285 7.2918L32.0645 12.6678L32.9285 13.8198C32.9285 13.8198 43.1045 1.6278 52.1285 7.6758L54.1445 5.2758L42.4325 2.2998L35.3285 7.2918Z" fill="url(#paint0_linear_4434_178)"/>
<path fill-rule="evenodd" clip-rule="evenodd" d="M36.2885 4.02769L30.1445 10.1717L27.3605 12.9557L21.3125 19.0037C17.9525 22.3637 13.3445 24.8597 8.54452 21.5957C6.62452 20.2517 5.76052 17.9477 5.76052 15.7397C5.76052 13.5317 6.81652 11.5157 8.25652 9.59569C9.88852 7.48369 14.0165 4.98769 17.4725 5.56369L18.4325 6.13969L20.9285 3.35569L20.3525 2.77969C14.4005 -0.484308 10.4645 1.81969 5.47252 6.71569C2.97652 9.21169 1.72852 12.3797 1.72852 15.6437C1.72852 18.9077 2.97652 22.0757 5.47252 24.5717C10.3685 29.4677 19.2005 26.6837 24.1925 21.7877L30.2405 15.7397L33.0245 12.9557L39.1685 6.81169C42.5285 3.45169 48.0005 3.45169 51.3605 6.81169L54.1445 4.02769C51.6485 1.53169 48.4805 0.283691 45.2165 0.283691C41.9525 0.283691 38.7845 1.53169 36.2885 4.02769Z" fill="url(#paint1_linear_4434_178)"/>
<path d="M55.104 4.69975C49.824 -0.580255 41.28 -0.580255 36 4.69975L29.472 11.2277L26.496 14.2037L19.968 20.7317C16.416 24.2837 10.56 24.2837 6.912 20.7317C5.088 18.9077 4.224 16.6037 4.224 14.2997C4.224 11.8997 5.088 9.59575 6.912 7.77175C10.464 4.21975 16.32 4.21975 19.968 7.77175L20.544 8.34775L23.52 5.37175L22.944 4.79575C17.664 -0.484255 9.216 -0.484255 3.936 4.79575C1.248 7.48375 0 10.8437 0 14.2997C0 17.7557 1.344 21.2117 3.936 23.8037C9.216 29.0837 17.76 28.9877 23.04 23.7077L29.568 17.1797L32.544 14.2037L39.072 7.67575C42.624 4.12375 48.48 4.12375 52.128 7.67575L55.104 4.69975Z" fill="#F6F6F6"/>
<path fill-rule="evenodd" clip-rule="evenodd" d="M36.0962 4.79586L29.5682 11.3239L26.5922 14.2999L20.0642 20.7319C20.0642 20.7319 15.5522 25.0519 9.98423 22.6519L4.03223 23.8039C9.02423 28.7959 17.8562 28.9879 23.0402 23.8039L29.5682 17.2759L32.5442 14.2999L39.0722 7.77186C42.6242 4.21986 48.4802 4.21986 52.1282 7.77186L55.1042 4.79586C52.5122 2.20386 49.0562 0.859863 45.6002 0.859863C42.1442 0.859863 38.6882 2.20386 36.0962 4.79586Z" fill="url(#paint2_linear_4434_178)"/>
<path d="M39.0722 20.7317L33.3122 14.8757L30.2402 17.9477L36.0962 23.7077L39.0722 20.7317Z" fill="#989897"/>
<path d="M28.8959 10.5557L26.7839 8.34766L23.7119 11.4197L25.8239 13.5317L28.8959 10.5557Z" fill="#989897"/>
<path d="M25.9204 11.3238C25.7284 11.1318 25.7284 10.8438 25.9204 10.6518C26.1124 10.4598 26.4004 10.4598 26.5924 10.6518C26.7844 10.8438 26.7844 11.1318 26.5924 11.3238C26.4004 11.5158 26.1124 11.5158 25.9204 11.3238Z" fill="#FEFEFE"/>
<path d="M33.6003 18.7157C33.5043 18.7157 33.4083 18.6197 33.3123 18.6197C33.2163 18.5237 33.1203 18.2357 33.3123 18.1397C33.5043 17.9477 33.6963 17.9477 33.8883 18.1397C33.9843 18.2357 33.9843 18.3317 33.9843 18.4277H34.2723C34.2723 18.2357 34.1763 18.1397 34.0803 17.9477C33.7923 17.6597 33.4083 17.6597 33.1203 17.9477C32.8323 18.2357 32.8323 18.6197 33.1203 18.9077C33.2163 19.0037 33.4083 19.0997 33.6003 19.0997V18.8117V18.7157ZM34.9443 18.8117C34.6563 18.5237 34.2723 18.5237 33.9843 18.8117C33.6963 19.0997 33.6963 19.4837 33.9843 19.7717C34.2723 20.0597 34.6563 20.0597 34.9443 19.7717C35.2323 19.4837 35.2323 19.0997 34.9443 18.8117ZM34.7523 19.0037C34.9443 19.1957 34.8483 19.3877 34.7523 19.4837C34.6563 19.5797 34.3683 19.6757 34.2723 19.4837C34.0803 19.2917 34.1763 19.0997 34.2723 19.0037C34.3683 18.9077 34.6563 18.8117 34.7523 19.0037ZM35.4243 21.2117L35.9043 20.7317C36.0003 20.6357 36.1923 20.5397 36.2883 20.7317C36.3843 20.8277 36.3843 21.0197 36.1923 21.1157L35.7123 21.5957L35.9043 21.7877L36.3843 21.3077C36.6723 21.0197 36.6723 20.7317 36.4803 20.5397C36.3843 20.4437 36.1923 20.3477 36.0003 20.3477C36.0963 20.1557 36.0003 20.0597 35.9043 19.8677C35.8083 19.7717 35.7123 19.6757 35.5203 19.7717L35.6163 19.6757L35.4243 19.4837L34.4643 20.3477L34.6563 20.5397L35.1363 20.0597C35.2323 19.9637 35.4243 19.8677 35.5203 20.0597C35.6163 20.1557 35.6163 20.3477 35.4243 20.4437L34.9443 20.9237L35.1363 21.1157L35.4243 21.2117Z" fill="white"/>
<path d="M87.7433 19.0298C87.7433 19.0298 87.7433 19.0298 87.7433 19.1845C87.7433 19.3393 87.7433 19.494 87.7433 19.8036C87.7433 20.0357 87.6678 20.3452 87.6678 20.6548C87.6678 20.9643 87.6678 21.2738 87.5923 21.6607C87.5169 22.4345 87.4414 23.3631 87.4414 24.369C85.9321 25.2202 84.4228 25.8393 82.9135 26.1488C81.4041 26.5357 79.8948 26.6905 78.3855 26.6905C76.6498 26.6905 74.9141 26.381 73.3293 25.7619C71.7445 25.1429 70.3107 24.2917 69.1032 23.2083C67.8958 22.125 66.9147 20.7321 66.16 19.1845C65.4054 17.6369 65.1035 15.8571 65.1035 13.9226C65.1035 12.2976 65.4054 10.75 66.0091 9.20238C66.6128 7.65476 67.443 6.2619 68.5749 5.02381C69.7069 3.78571 71.1408 2.77976 72.8765 2.08333C74.6122 1.30952 76.5743 1 78.8383 1C80.3476 1 81.706 1.15476 83.0644 1.46429C84.4228 1.77381 85.7812 2.2381 87.215 2.93452C87.2905 4.01786 87.2905 5.02381 87.3659 5.79762C87.3659 6.18452 87.4414 6.49405 87.4414 6.88095C87.4414 7.19048 87.4414 7.5 87.5169 7.80952C87.5169 8.04167 87.5169 8.27381 87.5169 8.42857C87.5169 8.58333 87.5169 8.66071 87.5169 8.66071C86.9886 7.42262 86.3094 6.41667 85.5548 5.64286C84.8001 4.86905 84.0454 4.32738 83.2908 3.94048C82.5361 3.55357 81.7815 3.32143 81.1023 3.24405C80.4231 3.16667 79.8194 3.08929 79.442 3.08929C77.9327 3.08929 76.5743 3.32143 75.3669 3.8631C74.1594 4.40476 73.1784 5.17857 72.3482 6.10714C71.5181 7.03571 70.9144 8.19643 70.4616 9.43452C70.0088 10.75 69.7824 12.0655 69.7824 13.5357C69.7824 14.7738 69.9333 16.0893 70.3107 17.4048C70.6125 18.7202 71.2162 19.9583 71.9709 21.0417C72.7256 22.125 73.7821 23.0536 74.9895 23.75C76.2725 24.4464 77.7818 24.8333 79.6684 24.8333C80.1212 24.8333 80.6495 24.756 81.3287 24.6786C82.0079 24.6012 82.6871 24.2917 83.4417 23.9048C84.1964 23.5179 84.951 22.9762 85.7057 22.2024C86.4603 21.4286 87.1395 20.4226 87.7433 19.1845V19.0298ZM307.953 25.1429C307.953 24.8333 307.726 24.6012 307.424 24.6012C307.122 24.6012 306.896 24.8333 306.896 25.1429C306.896 25.4524 307.122 25.6845 307.424 25.6845C307.726 25.6845 307.953 25.4524 307.953 25.1429ZM307.122 20.5774C307.198 20.8095 307.349 21.119 307.349 21.5833C307.349 22.4345 306.745 23.131 305.764 23.131C304.858 23.131 304.104 22.5893 304.104 21.5833C304.104 21.119 304.179 20.8095 304.33 20.6548L303.726 20.5C303.651 20.7321 303.5 21.119 303.5 21.5833C303.5 23.0536 304.481 23.9821 305.764 23.9821C307.047 23.9821 307.953 23.131 307.953 21.8155C307.953 21.1964 307.802 20.7321 307.726 20.5774L307.122 20.7321V20.5774ZM303.5 17.6369C303.5 18.875 304.33 19.8036 305.764 19.8036C307.122 19.8036 307.953 18.875 307.953 17.7143C307.953 16.631 307.273 15.5476 305.689 15.4702C304.406 15.4702 303.5 16.3214 303.5 17.5595V17.6369ZM304.104 17.6369C304.104 16.7083 305.009 16.3214 305.764 16.3214C306.745 16.3214 307.424 16.8631 307.424 17.6369C307.424 18.4107 306.745 18.9524 305.764 18.9524C304.934 18.9524 304.104 18.5655 304.104 17.5595V17.6369ZM307.953 14.4643V13.6905H305.387C305.236 13.6905 305.085 13.6905 305.009 13.6131C304.632 13.4583 304.255 13.1488 304.255 12.6071C304.255 11.9881 304.783 11.6786 305.462 11.6786H308.028V10.9048H305.387C305.236 10.9048 305.085 10.9048 305.009 10.8274C304.632 10.6726 304.33 10.3631 304.33 9.89881C304.33 9.27976 304.858 8.97024 305.689 8.97024H308.104V8.19643H305.538C304.028 8.19643 303.651 9.04762 303.651 9.66667C303.651 10.0536 303.726 10.3631 303.953 10.6726C304.104 10.8274 304.255 11.0595 304.481 11.1369C303.953 11.2917 303.651 11.756 303.651 12.375C303.651 13.0714 304.028 13.5357 304.406 13.7679H303.726V14.4643C304.104 14.4643 304.481 14.4643 304.858 14.4643H308.028H307.953ZM296.708 26.2262C296.935 26.0714 297.085 25.9167 297.236 25.7619C297.387 25.6071 297.463 25.2976 297.463 24.9881V16.631H289.162V24.9881C289.162 25.5298 289.388 25.994 289.841 26.2262H285.011C285.237 26.0714 285.388 25.9167 285.539 25.7619C285.69 25.6071 285.69 25.2976 285.69 24.9881V8.89286C285.69 8.27381 285.464 7.88691 285.011 7.65476H289.841C289.388 7.88691 289.162 8.27381 289.162 8.89286V15.3155H297.463V8.89286C297.463 8.27381 297.236 7.88691 296.708 7.65476H301.538C301.01 7.88691 300.783 8.27381 300.783 8.89286V24.9881C300.783 25.2976 300.859 25.5298 301.01 25.7619C301.161 25.9167 301.312 26.1488 301.538 26.2262H296.708ZM281.238 20.8095C281.238 21.6607 281.087 22.4345 280.709 23.131C280.408 23.8274 279.879 24.4464 279.351 24.9107C278.747 25.4524 278.144 25.8393 277.389 26.0714C276.634 26.381 275.88 26.4583 275.049 26.4583C274.446 26.4583 273.917 26.381 273.389 26.3036C272.861 26.2262 272.408 26.0714 271.955 25.994C271.503 25.8393 271.125 25.6845 270.823 25.5298C270.522 25.375 270.22 25.2202 269.993 25.1429L269.842 20.5C269.993 20.9643 270.144 21.506 270.446 22.0476C270.672 22.5893 271.05 23.0536 271.427 23.5179C271.804 23.9821 272.333 24.2917 272.861 24.6012C273.389 24.9107 273.993 25.0655 274.748 25.0655C275.427 25.0655 275.955 24.9881 276.408 24.756C276.861 24.5238 277.238 24.2917 277.464 23.9048C277.691 23.5952 277.917 23.2083 277.993 22.8214C278.068 22.4345 278.144 22.0476 278.144 21.7381C278.144 21.119 277.993 20.5774 277.766 20.1905C277.464 19.8036 277.163 19.4167 276.71 19.1845C276.257 18.875 275.729 18.6429 275.2 18.4107C274.672 18.1786 274.068 17.869 273.465 17.5595C272.257 16.8631 271.352 16.1667 270.823 15.3155C270.295 14.5417 269.993 13.6131 269.993 12.6071C269.993 11.6786 270.22 10.9048 270.597 10.2083C270.974 9.58929 271.427 9.04762 272.031 8.58333C272.635 8.19643 273.238 7.88691 273.917 7.65476C274.597 7.5 275.276 7.34524 275.804 7.34524C276.031 7.34524 276.332 7.34524 276.634 7.42262C276.936 7.42262 277.313 7.5 277.615 7.57738C277.993 7.65476 278.37 7.73214 278.747 7.88691C279.125 8.04167 279.502 8.19643 279.804 8.42857L279.955 12.4524C279.879 12.0655 279.728 11.6786 279.426 11.2917C279.2 10.9048 278.898 10.5179 278.521 10.131C278.144 9.74405 277.691 9.43452 277.238 9.20238C276.71 8.97024 276.181 8.81548 275.502 8.81548C274.974 8.81548 274.521 8.89286 274.219 9.04762C273.842 9.20238 273.616 9.43452 273.389 9.66667C273.163 9.89881 273.012 10.2083 272.861 10.5179C272.785 10.8274 272.71 11.1369 272.71 11.4464C272.71 11.8333 272.785 12.2202 272.936 12.5298C273.087 12.8393 273.314 13.0714 273.616 13.381C273.917 13.6131 274.295 13.9226 274.748 14.1548C275.2 14.3869 275.729 14.6964 276.332 14.9286C276.936 15.2381 277.54 15.5476 278.144 15.7798C278.747 16.0893 279.276 16.4762 279.728 16.8631C280.181 17.25 280.558 17.7917 280.86 18.4107C281.162 19.0298 281.313 19.8036 281.313 20.7321L281.238 20.8095ZM261.315 26.2262C261.541 26.0714 261.692 25.9167 261.843 25.7619C261.994 25.6071 261.994 25.2976 261.994 24.9881V8.89286C261.994 8.27381 261.767 7.88691 261.315 7.65476H266.145C265.692 7.88691 265.465 8.27381 265.465 8.89286V24.9881C265.465 25.5298 265.692 25.994 266.145 26.2262H261.315ZM257.164 7.65476C256.938 7.73214 256.787 7.88691 256.636 8.11905C256.485 8.35119 256.409 8.58333 256.409 8.89286V27C254.07 24.1369 251.881 21.5833 249.995 19.2619C249.165 18.3333 248.41 17.3274 247.655 16.3988C246.901 15.4702 246.222 14.619 245.618 13.9226C245.014 13.1488 244.561 12.6071 244.184 12.1429C243.807 11.6786 243.656 11.4464 243.656 11.369V25.0655C243.656 25.375 243.731 25.6071 243.882 25.8393C244.033 25.994 244.184 26.2262 244.41 26.3036H241.467C241.694 26.1488 241.844 25.994 241.995 25.8393C242.146 25.6845 242.222 25.375 242.222 25.0655V10.5179C242.222 10.2083 242.222 10.0536 242.222 9.89881C242.222 9.74405 242.222 9.58929 242.146 9.5119C242.146 9.43452 242.071 9.27976 241.995 9.20238C241.92 9.125 241.844 8.97024 241.694 8.81548C241.543 8.66071 241.392 8.50595 241.165 8.27381C241.014 8.11905 240.713 7.88691 240.486 7.73214H245.09L254.9 19.7262V8.97024C254.9 8.35119 254.674 7.96429 254.221 7.73214H257.164V7.65476ZM232.864 12.375C232.864 12.0655 232.789 11.6786 232.713 11.2917C232.638 10.9048 232.411 10.5179 232.185 10.131C231.958 9.74405 231.581 9.5119 231.128 9.27976C230.676 9.04762 230.147 8.89286 229.468 8.89286C229.242 8.89286 229.091 8.89286 228.864 8.89286C228.713 8.89286 228.487 8.89286 228.336 8.89286C228.185 8.89286 227.959 8.89286 227.883 8.89286V16.0119C228.034 16.0119 228.185 16.0119 228.336 16.0119C228.487 16.0119 228.563 16.0119 228.713 16.0119C228.864 16.0119 228.94 16.0119 229.091 16.0119C229.544 16.0119 229.996 15.9345 230.449 15.7798C230.902 15.625 231.279 15.3929 231.657 15.1607C232.034 14.8512 232.26 14.4643 232.487 14C232.713 13.5357 232.789 12.9167 232.789 12.2202L232.864 12.375ZM237.241 26.2262C236.713 26.2262 236.26 26.1488 235.883 25.8393C235.505 25.5298 235.128 25.2976 234.902 24.9107C234.298 24.0595 233.694 23.131 233.166 22.2024C232.562 21.2738 232.109 20.4226 231.581 19.6488C231.43 19.3393 231.204 19.1071 231.053 18.7976C230.902 18.4881 230.676 18.256 230.525 18.1012C230.374 17.869 230.147 17.7143 229.921 17.5595C229.695 17.4048 229.393 17.3274 229.166 17.3274C229.091 17.3274 228.94 17.3274 228.864 17.3274C228.713 17.3274 228.638 17.3274 228.487 17.3274C228.336 17.3274 228.185 17.3274 228.034 17.3274V24.756C228.034 25.0655 228.11 25.2976 228.261 25.5298C228.412 25.6845 228.563 25.9167 228.789 25.994H223.959C224.186 25.8393 224.336 25.6845 224.487 25.5298C224.638 25.375 224.638 25.0655 224.638 24.756V8.66071C224.638 8.04167 224.412 7.65476 223.959 7.42262H229.695C231.053 7.42262 232.185 7.57738 233.09 7.88691C233.996 8.19643 234.675 8.58333 235.128 9.04762C235.656 9.5119 235.958 9.97619 236.185 10.5179C236.335 11.0595 236.486 11.5238 236.486 11.9881C236.486 12.7619 236.335 13.381 236.034 13.9226C235.732 14.4643 235.354 14.9286 234.902 15.3155C234.449 15.7024 233.996 16.0119 233.468 16.1667C232.94 16.3988 232.411 16.4762 231.958 16.5536C232.411 16.631 232.789 16.7083 233.166 16.8631C233.468 17.0179 233.77 17.1726 233.996 17.4048C234.222 17.6369 234.449 17.7917 234.6 18.0238C234.751 18.256 234.902 18.4107 234.977 18.5655C235.581 19.5714 236.185 20.4226 236.713 21.2738C236.939 21.6607 237.166 21.9702 237.392 22.3571C237.618 22.744 237.845 23.0536 238.071 23.3631C238.298 23.6726 238.449 23.9821 238.675 24.2143C238.826 24.4464 238.977 24.6786 239.128 24.756C239.279 24.9107 239.43 25.0655 239.581 25.2202C239.731 25.375 239.958 25.4524 240.109 25.5298C240.335 25.6071 240.562 25.7619 240.788 25.8393L237.317 25.9167L237.241 26.2262ZM219.959 7.65476C219.733 7.73214 219.582 7.88691 219.431 8.11905C219.28 8.35119 219.205 8.58333 219.205 8.89286L219.129 20.0357C219.129 21.1964 218.978 22.2024 218.676 22.9762C218.375 23.75 217.922 24.4464 217.394 24.9881C216.865 25.5298 216.186 25.9167 215.431 26.1488C214.677 26.381 213.847 26.5357 212.941 26.5357C212.186 26.5357 211.356 26.4583 210.526 26.2262C209.696 25.994 208.941 25.6845 208.262 25.2202C207.583 24.756 206.979 24.1369 206.526 23.2857C206.074 22.5119 205.847 21.506 205.847 20.2679V8.89286C205.847 8.58333 205.772 8.35119 205.545 8.11905C205.395 7.88691 205.168 7.73214 204.942 7.65476H210.073C209.847 7.73214 209.696 7.88691 209.47 8.11905C209.319 8.35119 209.243 8.58333 209.243 8.89286V20.3452C209.243 20.8095 209.319 21.3512 209.394 21.8929C209.47 22.4345 209.696 22.9762 209.998 23.3631C210.3 23.8274 210.677 24.2143 211.205 24.5238C211.734 24.8333 212.413 24.9881 213.318 24.9881C214.149 24.9881 214.752 24.8333 215.356 24.6012C215.884 24.369 216.337 23.9821 216.714 23.5952C217.092 23.131 217.318 22.6667 217.469 22.0476C217.62 21.4286 217.695 20.8095 217.695 20.1905L217.62 8.97024C217.62 8.66071 217.545 8.42857 217.394 8.19643C217.243 7.96429 217.092 7.80952 216.865 7.73214H219.959V7.65476ZM201.923 4.79167C201.697 4.32738 201.395 4.01786 200.942 3.70833C200.489 3.39881 199.885 3.24405 199.055 3.24405C198.754 3.24405 198.225 3.24405 197.471 3.24405C196.716 3.24405 195.961 3.24405 195.131 3.16667C194.226 3.16667 193.169 3.08929 192.113 3.08929V11.5238H197.697C197.999 11.5238 198.225 11.4464 198.527 11.2143C198.754 10.9821 198.98 10.75 199.055 10.5952V14.4643C198.98 14.2321 198.754 13.9226 198.527 13.7679C198.301 13.5357 197.999 13.4583 197.697 13.4583H192.113V24.6786C192.113 25.1429 192.188 25.4524 192.414 25.6845C192.565 25.9167 192.867 26.1488 193.169 26.3036H186.528C186.83 26.0714 187.132 25.9167 187.283 25.6845C187.509 25.4524 187.585 25.1429 187.585 24.6786V3.0119C187.585 2.625 187.509 2.2381 187.283 2.00595C187.056 1.77381 186.83 1.54167 186.528 1.3869H201.697L201.848 4.94643L201.923 4.79167ZM177.321 26.1488C177.548 25.994 177.699 25.8393 177.849 25.6845C178 25.5298 178 25.2202 178 24.9107V11.2143C178 11.1369 178 11.0595 178 10.9821C178 10.9048 178 10.8274 178 10.8274C178 10.75 178 10.6726 178 10.6726L177.774 11.2917L171.359 26.6131L164.945 11.756L164.794 10.9821V11.756V25.0655C164.794 25.375 164.869 25.6071 165.02 25.8393C165.171 25.994 165.322 26.2262 165.549 26.3036H162.605C162.832 26.1488 162.983 25.994 163.134 25.8393C163.285 25.6845 163.36 25.375 163.36 25.0655V8.97024C163.36 8.7381 163.285 8.50595 163.058 8.27381C162.907 8.04167 162.681 7.88691 162.454 7.73214H167.133L172.416 20.2679L177.548 7.73214H182.076C181.623 7.96429 181.396 8.35119 181.396 8.97024V25.0655C181.396 25.375 181.472 25.6071 181.547 25.8393C181.698 25.994 181.849 26.2262 182.076 26.3036H177.321V26.1488ZM155.285 17.0952C155.285 15.7798 155.134 14.619 154.832 13.6131C154.531 12.6071 154.078 11.6786 153.549 10.9821C153.021 10.2857 152.342 9.74405 151.587 9.35714C150.833 8.97024 150.003 8.81548 149.172 8.81548C148.267 8.81548 147.437 8.97024 146.758 9.35714C146.003 9.66667 145.324 10.2083 144.795 10.9048C144.267 11.6012 143.814 12.375 143.513 13.3036C143.211 14.2321 143.06 15.3155 143.06 16.5536C143.06 18.0238 143.211 19.2619 143.588 20.3452C143.965 21.4286 144.418 22.2798 145.022 22.9762C145.626 23.6726 146.305 24.2143 147.059 24.5238C147.814 24.8333 148.569 25.0655 149.323 25.0655C150.229 25.0655 150.984 24.9107 151.738 24.5238C152.493 24.2143 153.097 23.6726 153.625 22.9762C154.153 22.2798 154.606 21.506 154.908 20.5C155.21 19.5714 155.361 18.4107 155.361 17.1726L155.285 17.0952ZM159.058 16.9405C159.058 18.5655 158.681 19.9583 158.077 21.119C157.474 22.2798 156.719 23.2857 155.738 24.0595C154.757 24.8333 153.7 25.4524 152.568 25.8393C151.361 26.2262 150.154 26.381 148.946 26.381C147.588 26.381 146.38 26.0714 145.173 25.6071C143.965 25.1429 142.984 24.4464 142.079 23.5952C141.173 22.744 140.494 21.7381 139.966 20.5774C139.437 19.4167 139.211 18.1012 139.211 16.7083C139.211 15.5476 139.437 14.3869 139.966 13.2262C140.418 12.0655 141.098 11.0595 141.928 10.2083C142.758 9.35714 143.814 8.58333 145.097 8.11905C146.38 7.57738 147.739 7.34524 149.399 7.34524C150.531 7.34524 151.663 7.57738 152.795 7.96429C153.927 8.35119 154.983 8.97024 155.889 9.82143C156.795 10.6726 157.549 11.6786 158.153 12.8393C158.757 14 158.983 15.3929 158.983 16.9405H159.058ZM138.004 10.2857C137.853 10.0536 137.702 9.82143 137.551 9.58929C137.324 9.35714 137.098 9.20238 136.796 9.20238C136.343 9.20238 135.815 9.125 135.362 9.125C134.909 9.125 134.457 9.04762 133.928 9.04762C133.4 9.04762 132.947 9.04762 132.419 9.04762V24.9881C132.419 25.2976 132.495 25.5298 132.645 25.7619C132.796 25.9167 132.947 26.1488 133.174 26.2262H128.419C128.646 26.0714 128.797 25.9167 128.948 25.7619C129.099 25.6071 129.174 25.2976 129.174 24.9881V9.04762C128.646 9.04762 128.193 9.04762 127.665 9.04762C127.136 9.04762 126.684 9.125 126.306 9.125C125.854 9.125 125.401 9.20238 124.948 9.20238C124.646 9.20238 124.344 9.35714 124.118 9.58929C123.891 9.82143 123.74 10.0536 123.59 10.2857V7.65476H138.154V10.2857H138.004ZM121.778 20.7321C121.778 21.5833 121.627 22.3571 121.25 23.0536C120.948 23.75 120.42 24.369 119.892 24.8333C119.288 25.375 118.684 25.7619 117.93 25.994C117.175 26.3036 116.42 26.381 115.59 26.381C114.986 26.381 114.458 26.3036 113.93 26.2262C113.402 26.1488 112.949 25.994 112.496 25.9167C112.043 25.7619 111.666 25.6071 111.364 25.4524C111.062 25.2976 110.76 25.1429 110.534 25.0655L110.383 20.4226C110.534 20.8869 110.685 21.4286 110.987 21.9702C111.213 22.5119 111.59 22.9762 111.968 23.4405C112.345 23.9048 112.873 24.2143 113.402 24.5238C113.93 24.8333 114.534 24.9881 115.288 24.9881C115.967 24.9881 116.496 24.9107 116.949 24.6786C117.401 24.4464 117.779 24.2143 118.005 23.8274C118.231 23.5179 118.458 23.131 118.533 22.744C118.609 22.3571 118.684 21.9702 118.684 21.6607C118.684 21.0417 118.533 20.5 118.307 20.1131C118.005 19.7262 117.703 19.3393 117.25 19.1071C116.798 18.7976 116.269 18.5655 115.741 18.3333C115.213 18.1012 114.609 17.7917 114.005 17.4821C112.798 16.7857 111.892 16.0893 111.364 15.2381C110.836 14.4643 110.534 13.5357 110.534 12.5298C110.534 11.6012 110.76 10.8274 111.138 10.131C111.515 9.5119 111.968 8.97024 112.572 8.50595C113.175 8.11905 113.779 7.80952 114.458 7.57738C115.137 7.42262 115.817 7.26786 116.345 7.26786C116.571 7.26786 116.873 7.26786 117.175 7.34524C117.477 7.34524 117.854 7.42262 118.156 7.5C118.533 7.57738 118.911 7.65476 119.288 7.80952C119.665 7.96429 120.043 8.11905 120.345 8.35119L120.495 12.375C120.42 11.9881 120.269 11.6012 119.967 11.2143C119.741 10.8274 119.439 10.4405 119.062 10.0536C118.684 9.66667 118.231 9.35714 117.779 9.125C117.25 8.89286 116.722 8.7381 116.043 8.7381C115.515 8.7381 115.062 8.81548 114.76 8.97024C114.383 9.125 114.156 9.35714 113.93 9.58929C113.704 9.82143 113.553 10.131 113.402 10.4405C113.326 10.75 113.251 11.0595 113.251 11.369C113.251 11.756 113.326 12.1429 113.477 12.4524C113.628 12.7619 113.854 12.994 114.156 13.3036C114.458 13.5357 114.836 13.8452 115.288 14.0774C115.741 14.3095 116.269 14.619 116.873 14.8512C117.477 15.1607 118.081 15.4702 118.684 15.7024C119.288 16.0119 119.816 16.3988 120.269 16.7857C120.722 17.1726 121.099 17.7143 121.401 18.3333C121.703 18.9524 121.854 19.7262 121.854 20.6548L121.778 20.7321ZM107.063 7.65476C106.836 7.73214 106.685 7.88691 106.534 8.11905C106.383 8.35119 106.308 8.58333 106.308 8.89286L106.232 20.0357C106.232 21.1964 106.081 22.2024 105.78 22.9762C105.478 23.75 105.025 24.4464 104.497 24.9881C103.968 25.5298 103.289 25.9167 102.535 26.1488C101.78 26.381 100.95 26.5357 100.044 26.5357C99.2895 26.5357 98.4594 26.4583 97.6293 26.2262C96.7992 25.994 96.0445 25.6845 95.3653 25.2202C94.6861 24.756 94.0824 24.1369 93.6296 23.2857C93.1768 22.5119 92.9504 21.506 92.9504 20.2679V8.89286C92.9504 8.58333 92.8749 8.35119 92.6485 8.11905C92.4976 7.88691 92.2712 7.73214 92.0448 7.65476H97.1765C96.9501 7.73214 96.7992 7.88691 96.5728 8.11905C96.4218 8.35119 96.3464 8.58333 96.3464 8.89286V20.3452C96.3464 20.8095 96.4218 21.3512 96.4973 21.8929C96.5728 22.4345 96.7992 22.9762 97.101 23.3631C97.4029 23.8274 97.7802 24.2143 98.3085 24.5238C98.8367 24.8333 99.5159 24.9881 100.422 24.9881C101.252 24.9881 101.855 24.8333 102.459 24.6012C102.987 24.369 103.44 23.9821 103.817 23.5952C104.195 23.131 104.421 22.6667 104.572 22.0476C104.723 21.4286 104.799 20.8095 104.799 20.1905L104.723 8.97024C104.723 8.66071 104.648 8.42857 104.497 8.19643C104.346 7.96429 104.195 7.80952 103.968 7.73214H107.063V7.65476Z" fill="black"/>
</g>
<defs>
<linearGradient id="paint0_linear_4434_178" x1="43.1169" y1="13.8251" x2="43.1169" y2="1.63193" gradientUnits="userSpaceOnUse">
<stop stop-color="#333436"/>
<stop offset="0.341176" stop-color="#7E8182"/>
<stop offset="0.560784" stop-color="#D2D5D7"/>
<stop offset="0.819608" stop-color="#7E8182"/>
<stop offset="0.980392" stop-color="#333436"/>
<stop offset="1" stop-color="#333436"/>
</linearGradient>
<linearGradient id="paint1_linear_4434_178" x1="27.9173" y1="29.6328" x2="27.9173" y2="-0.43026" gradientUnits="userSpaceOnUse">
<stop stop-color="#333436"/>
<stop offset="0.25098" stop-color="#888C8D"/>
<stop offset="0.560784" stop-color="#E8EBEC"/>
<stop offset="0.819608" stop-color="#888C8D"/>
<stop offset="0.980392" stop-color="#333436"/>
<stop offset="1" stop-color="#333436"/>
</linearGradient>
<linearGradient id="paint2_linear_4434_178" x1="4.06583" y1="14.9212" x2="55.157" y2="14.9212" gradientUnits="userSpaceOnUse">
<stop stop-color="#999998"/>
<stop offset="0.129412" stop-color="#999998"/>
<stop offset="0.431373" stop-color="#EF2B04"/>
<stop offset="1" stop-color="#E6353A"/>
</linearGradient>
<clipPath id="clip0_4434_178">
<rect width="309" height="28" fill="white"/>
</clipPath>
</defs>
</svg>
