<svg width="40" height="42" viewBox="0 0 40 42" fill="none" xmlns="http://www.w3.org/2000/svg">
<g clip-path="url(#clip0_6041_874)">
<g clip-path="url(#clip1_6041_874)">
<g clip-path="url(#clip2_6041_874)">
<path d="M32 0.432617H8C3.58172 0.432617 0 4.01434 0 8.43262V32.4326C0 36.8509 3.58172 40.4326 8 40.4326H32C36.4183 40.4326 40 36.8509 40 32.4326V8.43262C40 4.01434 36.4183 0.432617 32 0.432617Z" fill="black"/>
<path d="M30.0247 20.4576C30.0247 14.9238 25.5335 10.4326 19.9997 10.4326C14.4658 10.4326 9.97461 14.9238 9.97461 20.4576C9.97461 25.3098 13.4232 29.3499 17.9947 30.2822V23.4652H15.9896V20.4576H17.9947V17.9514C17.9947 16.0165 19.5686 14.4426 21.5034 14.4426H24.0097V17.4501H22.0047C21.4533 17.4501 21.0022 17.9012 21.0022 18.4526V20.4576H24.0097V23.4652H21.0022V30.4326C26.0648 29.9313 30.0247 25.6606 30.0247 20.4576Z" fill="white"/>
</g>
</g>
</g>
<defs>
<clipPath id="clip0_6041_874">
<rect width="40" height="40" fill="white"/>
</clipPath>
<clipPath id="clip1_6041_874">
<rect width="40" height="40" fill="white"/>
</clipPath>
<clipPath id="clip2_6041_874">
<rect width="40" height="40" fill="white"/>
</clipPath>
</defs>
</svg>
