<svg width="40" height="42" viewBox="0 0 40 42" fill="none" xmlns="http://www.w3.org/2000/svg">
<g clip-path="url(#clip0_6041_904)">
<g clip-path="url(#clip1_6041_904)">
<g clip-path="url(#clip2_6041_904)">
<path d="M32 0.432617H8C3.58172 0.432617 0 4.01434 0 8.43262V32.4326C0 36.8509 3.58172 40.4326 8 40.4326H32C36.4183 40.4326 40 36.8509 40 32.4326V8.43262C40 4.01434 36.4183 0.432617 32 0.432617Z" fill="black"/>
<path d="M20 10C25.523 10 30 14.477 30 20C30 25.523 25.523 30 20 30C18.2328 30.003 16.4966 29.5353 14.97 28.645L10.004 30L11.356 25.032C10.465 23.5049 9.99694 21.768 10 20C10 14.477 14.477 10 20 10ZM16.592 15.3L16.392 15.308C16.2627 15.3169 16.1364 15.3509 16.02 15.408C15.9116 15.4695 15.8126 15.5463 15.726 15.636C15.606 15.749 15.538 15.847 15.465 15.942C15.0951 16.4229 14.896 17.0133 14.899 17.62C14.901 18.11 15.029 18.587 15.229 19.033C15.638 19.935 16.311 20.89 17.199 21.775C17.413 21.988 17.623 22.202 17.849 22.401C18.9524 23.3724 20.2673 24.073 21.689 24.447L22.257 24.534C22.442 24.544 22.627 24.53 22.813 24.521C23.1042 24.5056 23.3885 24.4268 23.646 24.29C23.7769 24.2223 23.9047 24.1489 24.029 24.07C24.029 24.07 24.0714 24.0413 24.154 23.98C24.289 23.88 24.372 23.809 24.484 23.692C24.568 23.6053 24.638 23.5047 24.694 23.39C24.772 23.227 24.85 22.916 24.882 22.657C24.906 22.459 24.899 22.351 24.896 22.284C24.892 22.177 24.803 22.066 24.706 22.019L24.124 21.758C24.124 21.758 23.254 21.379 22.722 21.137C22.6663 21.1128 22.6067 21.0989 22.546 21.096C22.4776 21.0888 22.4084 21.0965 22.3432 21.1184C22.278 21.1403 22.2182 21.176 22.168 21.223C22.163 21.221 22.096 21.278 21.373 22.154C21.3315 22.2098 21.2744 22.2519 21.2088 22.2751C21.1433 22.2982 21.0723 22.3013 21.005 22.284C20.9398 22.2666 20.876 22.2446 20.814 22.218C20.69 22.166 20.647 22.146 20.562 22.11C19.9879 21.8599 19.4565 21.5215 18.987 21.107C18.861 20.997 18.744 20.877 18.624 20.761C18.2306 20.3842 17.8878 19.958 17.604 19.493L17.545 19.398C17.5033 19.3338 17.4691 19.265 17.443 19.193C17.405 19.046 17.504 18.928 17.504 18.928C17.504 18.928 17.747 18.662 17.86 18.518C17.97 18.378 18.063 18.242 18.123 18.145C18.241 17.955 18.278 17.76 18.216 17.609C17.936 16.925 17.6467 16.2447 17.348 15.568C17.289 15.434 17.114 15.338 16.955 15.319C16.901 15.3123 16.847 15.307 16.793 15.303C16.6587 15.2953 16.5241 15.2966 16.39 15.307L16.592 15.3Z" fill="white"/>
</g>
</g>
</g>
<defs>
<clipPath id="clip0_6041_904">
<rect width="40" height="40" fill="white"/>
</clipPath>
<clipPath id="clip1_6041_904">
<rect width="40" height="40" fill="white"/>
</clipPath>
<clipPath id="clip2_6041_904">
<rect width="40" height="40" fill="white"/>
</clipPath>
</defs>
</svg>
