<svg width="40" height="42" viewBox="0 0 40 42" fill="none" xmlns="http://www.w3.org/2000/svg">
<g clip-path="url(#clip0_6041_868)">
<g clip-path="url(#clip1_6041_868)">
<g clip-path="url(#clip2_6041_868)">
<path d="M32 0.432617H8C3.58172 0.432617 0 4.01434 0 8.43262V32.4326C0 36.8509 3.58172 40.4326 8 40.4326H32C36.4183 40.4326 40 36.8509 40 32.4326V8.43262C40 4.01434 36.4183 0.432617 32 0.432617Z" fill="black"/>
<path d="M21.0283 10.4326C22.1533 10.4356 22.7243 10.4416 23.2172 10.4556L23.4112 10.4626C23.6352 10.4706 23.8562 10.4806 24.1232 10.4926C25.1872 10.5426 25.9132 10.7106 26.5502 10.9576C27.2101 11.2116 27.7661 11.5555 28.3221 12.1105C28.8308 12.6103 29.2243 13.215 29.4751 13.8825C29.7221 14.5195 29.8901 15.2455 29.9401 16.3104C29.9521 16.5764 29.9621 16.7974 29.9701 17.0224L29.9761 17.2164C29.9911 17.7084 29.9971 18.2794 29.9991 19.4044L30.0001 20.1503V21.4603C30.0025 22.1897 29.9948 22.9191 29.9771 23.6483L29.9711 23.8422C29.9631 24.0672 29.9531 24.2882 29.9411 24.5542C29.8911 25.6192 29.7211 26.3442 29.4751 26.9822C29.2243 27.6497 28.8308 28.2544 28.3221 28.7541C27.8224 29.2628 27.2177 29.6563 26.5502 29.9071C25.9132 30.1541 25.1872 30.3221 24.1232 30.3721L23.4112 30.4021L23.2172 30.4081C22.7243 30.4221 22.1533 30.4291 21.0283 30.4311L20.2823 30.4321H18.9733C18.2436 30.4347 17.5139 30.427 16.7844 30.4091L16.5904 30.4031C16.353 30.3941 16.1157 30.3838 15.8784 30.3721C14.8145 30.3221 14.0885 30.1541 13.4505 29.9071C12.7833 29.6562 12.179 29.2627 11.6795 28.7541C11.1705 28.2545 10.7767 27.6498 10.5256 26.9822C10.2786 26.3452 10.1106 25.6192 10.0606 24.5542L10.0306 23.8422L10.0256 23.6483C10.0071 22.9191 9.99878 22.1897 10.0006 21.4603V19.4044C9.99778 18.675 10.0051 17.9456 10.0226 17.2164L10.0296 17.0224C10.0376 16.7974 10.0476 16.5764 10.0596 16.3104C10.1096 15.2455 10.2776 14.5205 10.5246 13.8825C10.7762 13.2147 11.1708 12.61 11.6805 12.1105C12.1797 11.6021 12.7837 11.2086 13.4505 10.9576C14.0885 10.7106 14.8135 10.5426 15.8784 10.4926C16.1444 10.4806 16.3664 10.4706 16.5904 10.4626L16.7844 10.4566C17.5136 10.4388 18.243 10.4311 18.9724 10.4336L21.0283 10.4326ZM20.0003 15.4325C18.6743 15.4325 17.4025 15.9592 16.4649 16.8969C15.5272 17.8345 15.0004 19.1063 15.0004 20.4323C15.0004 21.7584 15.5272 23.0301 16.4649 23.9678C17.4025 24.9054 18.6743 25.4322 20.0003 25.4322C21.3264 25.4322 22.5981 24.9054 23.5358 23.9678C24.4734 23.0301 25.0002 21.7584 25.0002 20.4323C25.0002 19.1063 24.4734 17.8345 23.5358 16.8969C22.5981 15.9592 21.3264 15.4325 20.0003 15.4325ZM20.0003 17.4324C20.3943 17.4323 20.7844 17.5099 21.1484 17.6606C21.5124 17.8113 21.8431 18.0322 22.1217 18.3107C22.4004 18.5892 22.6214 18.9199 22.7722 19.2838C22.923 19.6478 23.0007 20.0379 23.0008 20.4318C23.0008 20.8258 22.9233 21.2159 22.7726 21.5799C22.6219 21.9439 22.401 22.2746 22.1224 22.5532C21.8439 22.8319 21.5133 23.0529 21.1493 23.2037C20.7854 23.3545 20.3953 23.4322 20.0013 23.4323C19.2057 23.4323 18.4427 23.1162 17.8801 22.5536C17.3175 21.991 17.0014 21.228 17.0014 20.4323C17.0014 19.6367 17.3175 18.8737 17.8801 18.3111C18.4427 17.7485 19.2057 17.4324 20.0013 17.4324M25.2512 13.9325C24.9197 13.9325 24.6018 14.0642 24.3673 14.2986C24.1329 14.533 24.0012 14.8509 24.0012 15.1825C24.0012 15.514 24.1329 15.8319 24.3673 16.0663C24.6018 16.3007 24.9197 16.4324 25.2512 16.4324C25.5827 16.4324 25.9006 16.3007 26.1351 16.0663C26.3695 15.8319 26.5012 15.514 26.5012 15.1825C26.5012 14.8509 26.3695 14.533 26.1351 14.2986C25.9006 14.0642 25.5827 13.9325 25.2512 13.9325Z" fill="white"/>
</g>
</g>
</g>
<defs>
<clipPath id="clip0_6041_868">
<rect width="40" height="40" fill="white"/>
</clipPath>
<clipPath id="clip1_6041_868">
<rect width="40" height="40" fill="white"/>
</clipPath>
<clipPath id="clip2_6041_868">
<rect width="40" height="40" fill="white"/>
</clipPath>
</defs>
</svg>
