<svg width="40" height="42" viewBox="0 0 40 42" fill="none" xmlns="http://www.w3.org/2000/svg">
<g clip-path="url(#clip0_6041_898)">
<g clip-path="url(#clip1_6041_898)">
<g clip-path="url(#clip2_6041_898)">
<path d="M32 0.432617H8C3.58172 0.432617 0 4.01434 0 8.43262V32.4326C0 36.8509 3.58172 40.4326 8 40.4326H32C36.4183 40.4326 40 36.8509 40 32.4326V8.43262C40 4.01434 36.4183 0.432617 32 0.432617Z" fill="black"/>
<path d="M17.04 29.54C18 29.83 18.97 30 20 30C22.6522 30 25.1957 28.9464 27.0711 27.0711C28.9464 25.1957 30 22.6522 30 20C30 18.6868 29.7413 17.3864 29.2388 16.1732C28.7362 14.9599 27.9997 13.8575 27.0711 12.9289C26.1425 12.0003 25.0401 11.2638 23.8268 10.7612C22.6136 10.2587 21.3132 10 20 10C18.6868 10 17.3864 10.2587 16.1732 10.7612C14.9599 11.2638 13.8575 12.0003 12.9289 12.9289C11.0536 14.8043 10 17.3478 10 20C10 24.25 12.67 27.9 16.44 29.34C16.35 28.56 16.26 27.27 16.44 26.38L17.59 21.44C17.59 21.44 17.3 20.86 17.3 19.94C17.3 18.56 18.16 17.53 19.14 17.53C20 17.53 20.4 18.16 20.4 18.97C20.4 19.83 19.83 21.06 19.54 22.24C19.37 23.22 20.06 24.08 21.06 24.08C22.84 24.08 24.22 22.18 24.22 19.5C24.22 17.1 22.5 15.46 20.03 15.46C17.21 15.46 15.55 17.56 15.55 19.77C15.55 20.63 15.83 21.5 16.29 22.07C16.38 22.13 16.38 22.21 16.35 22.36L16.06 23.45C16.06 23.62 15.95 23.68 15.78 23.56C14.5 23 13.76 21.18 13.76 19.71C13.76 16.55 16 13.68 20.32 13.68C23.76 13.68 26.44 16.15 26.44 19.43C26.44 22.87 24.31 25.63 21.26 25.63C20.29 25.63 19.34 25.11 19 24.5L18.33 26.87C18.1 27.73 17.47 28.88 17.04 29.57V29.54Z" fill="white"/>
</g>
</g>
</g>
<defs>
<clipPath id="clip0_6041_898">
<rect width="40" height="40" fill="white"/>
</clipPath>
<clipPath id="clip1_6041_898">
<rect width="40" height="40" fill="white"/>
</clipPath>
<clipPath id="clip2_6041_898">
<rect width="40" height="40" fill="white"/>
</clipPath>
</defs>
</svg>
