<svg width="40" height="42" viewBox="0 0 40 42" fill="none" xmlns="http://www.w3.org/2000/svg">
<g clip-path="url(#clip0_6041_892)">
<g clip-path="url(#clip1_6041_892)">
<g clip-path="url(#clip2_6041_892)">
<path d="M32 0.432617H8C3.58172 0.432617 0 4.01434 0 8.43262V32.4326C0 36.8509 3.58172 40.4326 8 40.4326H32C36.4183 40.4326 40 36.8509 40 32.4326V8.43262C40 4.01434 36.4183 0.432617 32 0.432617Z" fill="black"/>
<path d="M30.2539 14.0594C29.499 14.4025 28.6853 14.628 27.8422 14.7359C28.7049 14.2162 29.3716 13.3927 29.6853 12.4025C28.8716 12.8927 27.9696 13.2359 27.0187 13.4319C26.2441 12.5888 25.1559 12.0986 23.9206 12.0986C21.6167 12.0986 19.7343 13.981 19.7343 16.3045C19.7343 16.6378 19.7736 16.9613 19.8422 17.2653C16.352 17.0888 13.2441 15.4123 11.1755 12.8731C10.8128 13.4908 10.6069 14.2162 10.6069 14.981C10.6069 16.4417 11.3422 17.7359 12.4794 18.4711C11.7834 18.4711 11.1363 18.2751 10.5677 17.981V18.0104C10.5677 20.0496 12.0187 21.7555 13.9402 22.1378C13.3234 22.3074 12.6755 22.3309 12.0481 22.2064C12.3143 23.0422 12.8358 23.7735 13.5393 24.2975C14.2427 24.8216 15.0926 25.112 15.9696 25.128C14.483 26.305 12.6402 26.9411 10.7441 26.9319C10.4108 26.9319 10.0775 26.9123 9.74414 26.8731C11.6069 28.0692 13.8226 28.7653 16.1951 28.7653C23.9206 28.7653 28.1657 22.3535 28.1657 16.7947C28.1657 16.6084 28.1657 16.4319 28.1559 16.2457C28.9794 15.6574 29.6853 14.9123 30.2539 14.0594Z" fill="white"/>
</g>
</g>
</g>
<defs>
<clipPath id="clip0_6041_892">
<rect width="40" height="40" fill="white"/>
</clipPath>
<clipPath id="clip1_6041_892">
<rect width="40" height="40" fill="white"/>
</clipPath>
<clipPath id="clip2_6041_892">
<rect width="40" height="40" fill="white"/>
</clipPath>
</defs>
</svg>
